<svg xmlns="http://www.w3.org/2000/svg" width="50" height="100" viewBox="0 0 333 900"> 
  <g transform="translate(0,900) scale(0.1,-0.1)" stroke="black" stroke-width="10">
    <path fill="#666" d="M1711 8249 c-112 -41 -178 -102 -286 -265 -156 -236 -226 -425 -244 -664
    -11 -155 -11 -6071 0 -6150 5 -36 16 -85 23 -110 8 -25 21 -74 31 -110 44 -166 
    55 -190 96 -215 l39 -25 494 0 c489 0 495 0 531 22 40 23 69 77 86 158 5 25 18 
    77 29 115 53 185 50 -30 50 3189 0 1920 -4 3032 -10 3118 -6 73 -18 158 -26 
    188 -48 171 -59 201 -115 314 -41 80 -171 275 -214 319 -51 52 -117 95 -182 
    118 -77 26 -226 25 -302 -2z"/>
  </g>
</svg>
